<svg width="56" height="56" viewBox="0 0 56 56" fill="none" xmlns="http://www.w3.org/2000/svg">
    <path d="M45.356 28.454c.028 6.535-.806 9.521-2.698 12.18-2.473 3.478-7.346 5.25-13.437 5.575-8.311.443-22.36.67-22.578-10.192-.17-8.54 8.309-8.886 9.28-9.12 1.457-.35 1.457-1.715 1.457-1.715s.23-8.745.525-12.214c.193-2.269.673-2.956 1.505-3.247 1.181-.412 2.695.63 4.203 1.905 1.363 1.152 5.546 4.224 5.546 4.224.673.489 1.255.867 2.217.867.801 0 1.491-.308 2.218-.867 0 0 4.441-3.405 5.873-4.473 1.507-1.124 2.745-1.822 3.856-1.47.869.278 1.434 1.125 1.527 3.058.17 3.478.503 12.214.503 12.214-.026 1.28.026 2.275 0 3.27l.003.005z" fill="#fff"/>
    <path d="M24.222 46.994c-5.978 0-11.802-.788-15.263-3.99-1.903-1.754-2.897-4.102-2.956-6.972-.11-5.504 3.041-8.765 9.365-9.686a7.8 7.8 0 0 0 .403-.065c.96-.231.971-1.062.971-1.096 0-.104.236-8.818.526-12.265.198-2.342.72-3.37 1.93-3.792 1.52-.528 3.218.659 4.828 2.02 1.332 1.125 5.472 4.168 5.512 4.2.636.462 1.079.745 1.84.745.605 0 1.167-.226 1.829-.735.045-.034 4.46-3.421 5.88-4.48 1.352-1.01 2.922-2.046 4.433-1.566 1.227.39 1.871 1.58 1.97 3.633.168 3.442.5 12.133.503 12.22v.037a60.61 60.61 0 0 0 0 1.755c.006.52.012 1.011 0 1.508.029 6.298-.71 9.579-2.817 12.542-2.464 3.467-7.28 5.487-13.922 5.843-1.659.088-3.354.15-5.035.15l.003-.006zM19.974 10.27c-.125 0-.241.017-.352.056-.35.122-.875.306-1.08 2.699-.286 3.41-.519 12.09-.522 12.177a2.45 2.45 0 0 1-1.945 2.314 6.85 6.85 0 0 1-.52.088c-2.081.302-8.416 1.229-8.271 8.402.05 2.549.883 4.535 2.541 6.07 4.086 3.777 12.08 3.887 19.36 3.497 6.24-.333 10.717-2.17 12.95-5.309 1.658-2.33 2.612-5.012 2.58-11.81v-.02c.012-.474.006-.957 0-1.472-.005-.55-.014-1.121 0-1.777-.016-.45-.337-8.83-.5-12.189-.104-2.172-.814-2.398-1.084-2.483-.715-.226-1.667.17-3.277 1.373-1.411 1.054-5.821 4.436-5.867 4.47-.886.683-1.715 1-2.61 1-1.138 0-1.848-.45-2.595-.992-.173-.127-4.22-3.1-5.585-4.255-1.042-.881-2.312-1.845-3.226-1.845l.003.006z" fill="#000"/>
    <path d="M19.513 39.086h-7.837a.638.638 0 0 1-.639-.636c0-.35.287-.636.639-.636h7.837c.352 0 .64.286.64.636 0 .35-.287.636-.64.636zM16.527 32.441c0 .898-.954 1.625-2.133 1.625-1.178 0-2.132-.727-2.132-1.625 0-.899.954-1.625 2.132-1.625 1.179 0 2.133.73 2.133 1.625zM26.82 24.868h-3.322a.45.45 0 0 0-.451.45v3.305c0 .248.202.45.451.45h3.323a.45.45 0 0 0 .451-.45v-3.306a.45.45 0 0 0-.451-.449zM37.653 24.868H34.33a.45.45 0 0 0-.451.45v3.305c0 .248.202.45.451.45h3.323a.45.45 0 0 0 .451-.45v-3.306a.45.45 0 0 0-.451-.449z" fill="#000"/>
</svg>
